# xmcd
#
# Track frame offsets: 
#        150
#        13765
#        27500
#        41680
#        54692
#        68542
#        81007
#        93040
#        105862
#        119730
#        131825
#        145170
#        157990
#        171430
#        181797
#        195987
#        210515
#        225415
#
# Disc length: 3191 seconds
#
# Revision: 4
# Processed by: cddbd v1.5.2PL0 Copyright (c) Steve Scherf et al.
# Submitted via: ExactAudioCopy v0.99pb5
#
DISCID=e60c7512
DTITLE=Billie Holiday - The Great Billie Holiday
DYEAR=2001
DGENRE=Blues
TTITLE0=You Showed Me The Way
TTITLE1=Sun Showers
TTITLE2=Mean To Me
TTITLE3=Without Your Love
TTITLE4=I'll Never Be The Same
TTITLE5=I Can't Believe That You're In Love With Me
TTITLE6=She's Funny That Way
TTITLE7=Them There Eyes
TTITLE8=They Say
TTITLE9=What Is This Going To Get Us
TTITLE10=Swing, Brother, Swing
TTITLE11=Falling In Love Again
TTITLE12=You're Just A No Account
TTITLE13=Romance In The Dark
TTITLE14=Carelessly
TTITLE15=Gloomy Sunday
TTITLE16=These Foolish Things
TTITLE17=My Man
EXTD=ID3G:   0
EXTT0=
EXTT1=
EXTT2=
EXTT3=
EXTT4=
EXTT5=
EXTT6=
EXTT7=
EXTT8=
EXTT9=
EXTT10=
EXTT11=
EXTT12=
EXTT13=
EXTT14=
EXTT15=
EXTT16=
EXTT17=
PLAYORDER=
